<mxfile host="app.diagrams.net" modified="2021-12-02T05:55:28.922Z" agent="5.0 (X11; Linux x86_64) AppleWebKit/537.36 (KHTML, like Gecko) Chrome/96.0.4664.45 Safari/537.36" etag="eDt039ivMfZNW-GfHopY" version="15.8.8" type="github" pages="2">
  <diagram id="IKjqVOgxeg2wQAaVnLiK" name="Server Link Packet Structure">
    <mxGraphModel dx="1392" dy="768" grid="1" gridSize="10" guides="1" tooltips="1" connect="1" arrows="1" fold="1" page="1" pageScale="1" pageWidth="850" pageHeight="1100" math="0" shadow="0">
      <root>
        <mxCell id="sJ-mI_hsvMh35UI8rQKV-0" />
        <mxCell id="sJ-mI_hsvMh35UI8rQKV-1" parent="sJ-mI_hsvMh35UI8rQKV-0" />
        <mxCell id="sJ-mI_hsvMh35UI8rQKV-15" value="0" style="rounded=0;whiteSpace=wrap;html=1;align=center;verticalAlign=middle;" parent="sJ-mI_hsvMh35UI8rQKV-1" vertex="1">
          <mxGeometry x="40" y="120" width="80" height="40" as="geometry" />
        </mxCell>
        <mxCell id="sJ-mI_hsvMh35UI8rQKV-16" value="Identity Report" style="rounded=0;whiteSpace=wrap;html=1;align=center;verticalAlign=middle;" parent="sJ-mI_hsvMh35UI8rQKV-1" vertex="1">
          <mxGeometry x="120" y="120" width="200" height="40" as="geometry" />
        </mxCell>
        <mxCell id="sJ-mI_hsvMh35UI8rQKV-17" value="1" style="rounded=0;whiteSpace=wrap;html=1;align=center;verticalAlign=middle;" parent="sJ-mI_hsvMh35UI8rQKV-1" vertex="1">
          <mxGeometry x="40" y="160" width="80" height="40" as="geometry" />
        </mxCell>
        <mxCell id="sJ-mI_hsvMh35UI8rQKV-18" value="Identity Request" style="rounded=0;whiteSpace=wrap;html=1;align=center;verticalAlign=middle;" parent="sJ-mI_hsvMh35UI8rQKV-1" vertex="1">
          <mxGeometry x="120" y="160" width="200" height="40" as="geometry" />
        </mxCell>
        <mxCell id="sJ-mI_hsvMh35UI8rQKV-19" value="0" style="rounded=0;whiteSpace=wrap;html=1;align=center;verticalAlign=middle;" parent="sJ-mI_hsvMh35UI8rQKV-1" vertex="1">
          <mxGeometry x="320" y="120" width="80" height="40" as="geometry" />
        </mxCell>
        <mxCell id="sJ-mI_hsvMh35UI8rQKV-20" value="Report Public Ip and port" style="rounded=0;whiteSpace=wrap;html=1;align=center;verticalAlign=middle;" parent="sJ-mI_hsvMh35UI8rQKV-1" vertex="1">
          <mxGeometry x="400" y="120" width="200" height="40" as="geometry" />
        </mxCell>
        <mxCell id="sJ-mI_hsvMh35UI8rQKV-23" value="1" style="rounded=0;whiteSpace=wrap;html=1;align=center;verticalAlign=middle;" parent="sJ-mI_hsvMh35UI8rQKV-1" vertex="1">
          <mxGeometry x="320" y="160" width="80" height="40" as="geometry" />
        </mxCell>
        <mxCell id="sJ-mI_hsvMh35UI8rQKV-24" value="Report Public IP and port of requested username" style="rounded=0;whiteSpace=wrap;html=1;align=center;verticalAlign=middle;" parent="sJ-mI_hsvMh35UI8rQKV-1" vertex="1">
          <mxGeometry x="400" y="160" width="200" height="40" as="geometry" />
        </mxCell>
        <mxCell id="sJ-mI_hsvMh35UI8rQKV-26" value="Type Numbers" style="text;html=1;strokeColor=none;fillColor=none;align=left;verticalAlign=middle;whiteSpace=wrap;rounded=0;fontSize=22;fontStyle=1" parent="sJ-mI_hsvMh35UI8rQKV-1" vertex="1">
          <mxGeometry x="40" y="40" width="220" height="30" as="geometry" />
        </mxCell>
        <mxCell id="QHLo0AknbR9kDvrQwXr--0" value="Request" style="rounded=0;whiteSpace=wrap;html=1;align=center;verticalAlign=middle;" parent="sJ-mI_hsvMh35UI8rQKV-1" vertex="1">
          <mxGeometry x="40" y="80" width="280" height="40" as="geometry" />
        </mxCell>
        <mxCell id="QHLo0AknbR9kDvrQwXr--1" value="Response" style="rounded=0;whiteSpace=wrap;html=1;align=center;verticalAlign=middle;" parent="sJ-mI_hsvMh35UI8rQKV-1" vertex="1">
          <mxGeometry x="320" y="80" width="280" height="40" as="geometry" />
        </mxCell>
        <mxCell id="QHLo0AknbR9kDvrQwXr--2" value="2" style="rounded=0;whiteSpace=wrap;html=1;align=center;verticalAlign=middle;" parent="sJ-mI_hsvMh35UI8rQKV-1" vertex="1">
          <mxGeometry x="40" y="200" width="80" height="40" as="geometry" />
        </mxCell>
        <mxCell id="QHLo0AknbR9kDvrQwXr--3" value="Connection Request&lt;br&gt;{username:}" style="rounded=0;whiteSpace=wrap;html=1;align=center;verticalAlign=middle;" parent="sJ-mI_hsvMh35UI8rQKV-1" vertex="1">
          <mxGeometry x="120" y="200" width="200" height="40" as="geometry" />
        </mxCell>
        <mxCell id="QHLo0AknbR9kDvrQwXr--4" value="2" style="rounded=0;whiteSpace=wrap;html=1;align=center;verticalAlign=middle;" parent="sJ-mI_hsvMh35UI8rQKV-1" vertex="1">
          <mxGeometry x="320" y="200" width="80" height="40" as="geometry" />
        </mxCell>
        <mxCell id="QHLo0AknbR9kDvrQwXr--5" value="ok" style="rounded=0;whiteSpace=wrap;html=1;align=center;verticalAlign=middle;" parent="sJ-mI_hsvMh35UI8rQKV-1" vertex="1">
          <mxGeometry x="400" y="200" width="200" height="40" as="geometry" />
        </mxCell>
        <mxCell id="QHLo0AknbR9kDvrQwXr--6" value="3" style="rounded=0;whiteSpace=wrap;html=1;align=center;verticalAlign=middle;" parent="sJ-mI_hsvMh35UI8rQKV-1" vertex="1">
          <mxGeometry x="40" y="240" width="80" height="40" as="geometry" />
        </mxCell>
        <mxCell id="QHLo0AknbR9kDvrQwXr--7" value="Connection Poll" style="rounded=0;whiteSpace=wrap;html=1;align=center;verticalAlign=middle;" parent="sJ-mI_hsvMh35UI8rQKV-1" vertex="1">
          <mxGeometry x="120" y="240" width="200" height="40" as="geometry" />
        </mxCell>
        <mxCell id="QHLo0AknbR9kDvrQwXr--8" value="3" style="rounded=0;whiteSpace=wrap;html=1;align=center;verticalAlign=middle;" parent="sJ-mI_hsvMh35UI8rQKV-1" vertex="1">
          <mxGeometry x="320" y="240" width="80" height="40" as="geometry" />
        </mxCell>
        <mxCell id="QHLo0AknbR9kDvrQwXr--9" value="Report list of Public IP and port pairs that are requesting connection" style="rounded=0;whiteSpace=wrap;html=1;align=center;verticalAlign=middle;" parent="sJ-mI_hsvMh35UI8rQKV-1" vertex="1">
          <mxGeometry x="400" y="240" width="200" height="40" as="geometry" />
        </mxCell>
        <mxCell id="QHLo0AknbR9kDvrQwXr--14" value="A" style="rounded=1;whiteSpace=wrap;html=1;" parent="sJ-mI_hsvMh35UI8rQKV-1" vertex="1">
          <mxGeometry x="120" y="330" width="120" height="60" as="geometry" />
        </mxCell>
        <mxCell id="QHLo0AknbR9kDvrQwXr--15" value="B" style="rounded=1;whiteSpace=wrap;html=1;" parent="sJ-mI_hsvMh35UI8rQKV-1" vertex="1">
          <mxGeometry x="620" y="330" width="120" height="60" as="geometry" />
        </mxCell>
        <mxCell id="QHLo0AknbR9kDvrQwXr--16" value="Tracker" style="rounded=1;whiteSpace=wrap;html=1;" parent="sJ-mI_hsvMh35UI8rQKV-1" vertex="1">
          <mxGeometry x="365" y="330" width="120" height="60" as="geometry" />
        </mxCell>
        <mxCell id="QHLo0AknbR9kDvrQwXr--17" value="" style="endArrow=none;html=1;rounded=0;entryX=0.5;entryY=1;entryDx=0;entryDy=0;" parent="sJ-mI_hsvMh35UI8rQKV-1" target="QHLo0AknbR9kDvrQwXr--14" edge="1">
          <mxGeometry width="50" height="50" relative="1" as="geometry">
            <mxPoint x="180" y="730" as="sourcePoint" />
            <mxPoint x="460" y="500" as="targetPoint" />
          </mxGeometry>
        </mxCell>
        <mxCell id="QHLo0AknbR9kDvrQwXr--18" value="" style="endArrow=none;html=1;rounded=0;entryX=0.5;entryY=1;entryDx=0;entryDy=0;" parent="sJ-mI_hsvMh35UI8rQKV-1" edge="1">
          <mxGeometry width="50" height="50" relative="1" as="geometry">
            <mxPoint x="430" y="730" as="sourcePoint" />
            <mxPoint x="430" y="390" as="targetPoint" />
          </mxGeometry>
        </mxCell>
        <mxCell id="QHLo0AknbR9kDvrQwXr--19" value="" style="endArrow=none;html=1;rounded=0;entryX=0.5;entryY=1;entryDx=0;entryDy=0;" parent="sJ-mI_hsvMh35UI8rQKV-1" edge="1">
          <mxGeometry width="50" height="50" relative="1" as="geometry">
            <mxPoint x="679.5799999999999" y="730" as="sourcePoint" />
            <mxPoint x="679.5799999999999" y="390" as="targetPoint" />
          </mxGeometry>
        </mxCell>
        <mxCell id="QHLo0AknbR9kDvrQwXr--20" value="" style="endArrow=classic;html=1;rounded=0;" parent="sJ-mI_hsvMh35UI8rQKV-1" edge="1">
          <mxGeometry width="50" height="50" relative="1" as="geometry">
            <mxPoint x="180" y="430" as="sourcePoint" />
            <mxPoint x="430" y="430" as="targetPoint" />
          </mxGeometry>
        </mxCell>
        <mxCell id="QHLo0AknbR9kDvrQwXr--22" value="I want to connect to B" style="text;html=1;strokeColor=none;fillColor=none;align=center;verticalAlign=middle;whiteSpace=wrap;rounded=0;" parent="sJ-mI_hsvMh35UI8rQKV-1" vertex="1">
          <mxGeometry x="220" y="400" width="170" height="30" as="geometry" />
        </mxCell>
        <mxCell id="QHLo0AknbR9kDvrQwXr--23" value="" style="endArrow=classic;html=1;rounded=0;" parent="sJ-mI_hsvMh35UI8rQKV-1" edge="1">
          <mxGeometry width="50" height="50" relative="1" as="geometry">
            <mxPoint x="680" y="470" as="sourcePoint" />
            <mxPoint x="430" y="470" as="targetPoint" />
          </mxGeometry>
        </mxCell>
        <mxCell id="QHLo0AknbR9kDvrQwXr--24" value="Poll: Is anyone trying to connect to me?" style="text;html=1;strokeColor=none;fillColor=none;align=center;verticalAlign=middle;whiteSpace=wrap;rounded=0;" parent="sJ-mI_hsvMh35UI8rQKV-1" vertex="1">
          <mxGeometry x="470" y="440" width="170" height="30" as="geometry" />
        </mxCell>
        <mxCell id="QHLo0AknbR9kDvrQwXr--25" value="" style="endArrow=classic;html=1;rounded=0;" parent="sJ-mI_hsvMh35UI8rQKV-1" edge="1">
          <mxGeometry width="50" height="50" relative="1" as="geometry">
            <mxPoint x="430" y="520" as="sourcePoint" />
            <mxPoint x="680" y="520" as="targetPoint" />
          </mxGeometry>
        </mxCell>
        <mxCell id="QHLo0AknbR9kDvrQwXr--26" value="A wants to connect to you" style="text;html=1;strokeColor=none;fillColor=none;align=center;verticalAlign=middle;whiteSpace=wrap;rounded=0;" parent="sJ-mI_hsvMh35UI8rQKV-1" vertex="1">
          <mxGeometry x="465" y="490" width="170" height="30" as="geometry" />
        </mxCell>
        <mxCell id="QHLo0AknbR9kDvrQwXr--29" value="" style="endArrow=classic;html=1;rounded=0;" parent="sJ-mI_hsvMh35UI8rQKV-1" edge="1">
          <mxGeometry width="50" height="50" relative="1" as="geometry">
            <mxPoint x="680" y="570" as="sourcePoint" />
            <mxPoint x="430" y="570" as="targetPoint" />
          </mxGeometry>
        </mxCell>
        <mxCell id="QHLo0AknbR9kDvrQwXr--30" value="I want to connect to A" style="text;html=1;strokeColor=none;fillColor=none;align=center;verticalAlign=middle;whiteSpace=wrap;rounded=0;" parent="sJ-mI_hsvMh35UI8rQKV-1" vertex="1">
          <mxGeometry x="470" y="540" width="170" height="30" as="geometry" />
        </mxCell>
        <mxCell id="QHLo0AknbR9kDvrQwXr--31" value="Create new identity" style="text;html=1;strokeColor=none;fillColor=none;align=center;verticalAlign=middle;whiteSpace=wrap;rounded=0;" parent="sJ-mI_hsvMh35UI8rQKV-1" vertex="1">
          <mxGeometry x="70" y="410" width="100" height="30" as="geometry" />
        </mxCell>
        <mxCell id="QHLo0AknbR9kDvrQwXr--32" value="Create a new Identity" style="text;html=1;strokeColor=none;fillColor=none;align=center;verticalAlign=middle;whiteSpace=wrap;rounded=0;" parent="sJ-mI_hsvMh35UI8rQKV-1" vertex="1">
          <mxGeometry x="680" y="550" width="110" height="30" as="geometry" />
        </mxCell>
        <mxCell id="QHLo0AknbR9kDvrQwXr--33" value="" style="endArrow=classic;html=1;rounded=0;" parent="sJ-mI_hsvMh35UI8rQKV-1" edge="1">
          <mxGeometry width="50" height="50" relative="1" as="geometry">
            <mxPoint x="430" y="610" as="sourcePoint" />
            <mxPoint x="180" y="610" as="targetPoint" />
          </mxGeometry>
        </mxCell>
        <mxCell id="QHLo0AknbR9kDvrQwXr--34" value="B wants to connect to you" style="text;html=1;strokeColor=none;fillColor=none;align=center;verticalAlign=middle;whiteSpace=wrap;rounded=0;" parent="sJ-mI_hsvMh35UI8rQKV-1" vertex="1">
          <mxGeometry x="215" y="580" width="170" height="30" as="geometry" />
        </mxCell>
        <mxCell id="QHLo0AknbR9kDvrQwXr--35" value="" style="endArrow=classic;html=1;rounded=0;" parent="sJ-mI_hsvMh35UI8rQKV-1" edge="1">
          <mxGeometry width="50" height="50" relative="1" as="geometry">
            <mxPoint x="180" y="579.17" as="sourcePoint" />
            <mxPoint x="430" y="579.17" as="targetPoint" />
          </mxGeometry>
        </mxCell>
        <mxCell id="QHLo0AknbR9kDvrQwXr--36" value="Poll: Is anyone trying to connect to me?" style="text;html=1;strokeColor=none;fillColor=none;align=center;verticalAlign=middle;whiteSpace=wrap;rounded=0;" parent="sJ-mI_hsvMh35UI8rQKV-1" vertex="1">
          <mxGeometry x="220" y="549.17" width="170" height="30" as="geometry" />
        </mxCell>
        <mxCell id="QHLo0AknbR9kDvrQwXr--37" value="" style="endArrow=classic;html=1;rounded=0;" parent="sJ-mI_hsvMh35UI8rQKV-1" edge="1">
          <mxGeometry width="50" height="50" relative="1" as="geometry">
            <mxPoint x="180" y="489.1700000000001" as="sourcePoint" />
            <mxPoint x="430" y="489.1700000000001" as="targetPoint" />
          </mxGeometry>
        </mxCell>
        <mxCell id="QHLo0AknbR9kDvrQwXr--38" value="Poll: Is anyone trying to connect to me?" style="text;html=1;strokeColor=none;fillColor=none;align=center;verticalAlign=middle;whiteSpace=wrap;rounded=0;" parent="sJ-mI_hsvMh35UI8rQKV-1" vertex="1">
          <mxGeometry x="220" y="459.16999999999996" width="170" height="30" as="geometry" />
        </mxCell>
        <mxCell id="QHLo0AknbR9kDvrQwXr--39" value="I already tried to connect to B" style="text;html=1;strokeColor=none;fillColor=none;align=center;verticalAlign=middle;whiteSpace=wrap;rounded=0;" parent="sJ-mI_hsvMh35UI8rQKV-1" vertex="1">
          <mxGeometry x="60" y="600" width="110" height="30" as="geometry" />
        </mxCell>
        <mxCell id="QHLo0AknbR9kDvrQwXr--40" value="Connection Request:&lt;br&gt;- identity number&lt;br&gt;- my username&lt;br&gt;- other username&lt;br&gt;&lt;br&gt;Poll response:&lt;br&gt;- array&lt;br&gt;&lt;span style=&quot;white-space: pre&quot;&gt; &lt;/span&gt;- ip&lt;br&gt;&lt;span style=&quot;white-space: pre&quot;&gt; &lt;/span&gt;- port&lt;br&gt;&lt;span style=&quot;white-space: pre&quot;&gt; &lt;/span&gt;- identity number&lt;br&gt;&lt;span style=&quot;white-space: pre&quot;&gt; &lt;/span&gt;- username" style="text;html=1;strokeColor=none;fillColor=none;align=left;verticalAlign=top;whiteSpace=wrap;rounded=0;" parent="sJ-mI_hsvMh35UI8rQKV-1" vertex="1">
          <mxGeometry x="650" y="100" width="140" height="150" as="geometry" />
        </mxCell>
      </root>
    </mxGraphModel>
  </diagram>
  <diagram id="Jb5kOYLrFFZNdn3lgStu" name="Connection Algorithm">
    <mxGraphModel dx="960" dy="530" grid="1" gridSize="10" guides="1" tooltips="1" connect="1" arrows="1" fold="1" page="1" pageScale="1" pageWidth="850" pageHeight="1100" math="0" shadow="0">
      <root>
        <mxCell id="LOqnOxIcrfnhqqUliYvZ-0" />
        <mxCell id="LOqnOxIcrfnhqqUliYvZ-1" parent="LOqnOxIcrfnhqqUliYvZ-0" />
        <mxCell id="LOqnOxIcrfnhqqUliYvZ-4" value="" style="edgeStyle=orthogonalEdgeStyle;rounded=0;orthogonalLoop=1;jettySize=auto;html=1;" edge="1" parent="LOqnOxIcrfnhqqUliYvZ-1" source="LOqnOxIcrfnhqqUliYvZ-2" target="LOqnOxIcrfnhqqUliYvZ-3">
          <mxGeometry relative="1" as="geometry" />
        </mxCell>
        <mxCell id="LOqnOxIcrfnhqqUliYvZ-2" value="Create new UDP Socket and assign identity number" style="rounded=0;whiteSpace=wrap;html=1;" vertex="1" parent="LOqnOxIcrfnhqqUliYvZ-1">
          <mxGeometry x="80" y="100" width="120" height="60" as="geometry" />
        </mxCell>
        <mxCell id="LOqnOxIcrfnhqqUliYvZ-6" value="" style="edgeStyle=orthogonalEdgeStyle;rounded=0;orthogonalLoop=1;jettySize=auto;html=1;" edge="1" parent="LOqnOxIcrfnhqqUliYvZ-1" source="LOqnOxIcrfnhqqUliYvZ-3" target="LOqnOxIcrfnhqqUliYvZ-5">
          <mxGeometry relative="1" as="geometry" />
        </mxCell>
        <mxCell id="LOqnOxIcrfnhqqUliYvZ-3" value="Create Initialized object" style="rounded=0;whiteSpace=wrap;html=1;" vertex="1" parent="LOqnOxIcrfnhqqUliYvZ-1">
          <mxGeometry x="80" y="220" width="120" height="60" as="geometry" />
        </mxCell>
        <mxCell id="LOqnOxIcrfnhqqUliYvZ-5" value="Add to Hashmap of Initialized objects" style="rounded=0;whiteSpace=wrap;html=1;" vertex="1" parent="LOqnOxIcrfnhqqUliYvZ-1">
          <mxGeometry x="80" y="340" width="120" height="60" as="geometry" />
        </mxCell>
        <mxCell id="LOqnOxIcrfnhqqUliYvZ-12" value="" style="edgeStyle=orthogonalEdgeStyle;rounded=0;orthogonalLoop=1;jettySize=auto;html=1;fontSize=22;" edge="1" parent="LOqnOxIcrfnhqqUliYvZ-1" source="LOqnOxIcrfnhqqUliYvZ-7" target="LOqnOxIcrfnhqqUliYvZ-11">
          <mxGeometry relative="1" as="geometry" />
        </mxCell>
        <mxCell id="LOqnOxIcrfnhqqUliYvZ-7" value="Poll for connections" style="rounded=0;whiteSpace=wrap;html=1;" vertex="1" parent="LOqnOxIcrfnhqqUliYvZ-1">
          <mxGeometry x="400" y="100" width="120" height="60" as="geometry" />
        </mxCell>
        <mxCell id="LOqnOxIcrfnhqqUliYvZ-8" value="A Thread would use Initialized objects to periodically send connection requests" style="text;html=1;strokeColor=none;fillColor=none;align=center;verticalAlign=middle;whiteSpace=wrap;rounded=0;" vertex="1" parent="LOqnOxIcrfnhqqUliYvZ-1">
          <mxGeometry x="45" y="450" width="190" height="30" as="geometry" />
        </mxCell>
        <mxCell id="LOqnOxIcrfnhqqUliYvZ-9" value="Connection Request" style="text;html=1;strokeColor=none;fillColor=none;align=left;verticalAlign=middle;whiteSpace=wrap;rounded=0;fontStyle=1;fontSize=22;" vertex="1" parent="LOqnOxIcrfnhqqUliYvZ-1">
          <mxGeometry x="40" y="50" width="260" height="30" as="geometry" />
        </mxCell>
        <mxCell id="LOqnOxIcrfnhqqUliYvZ-10" value="Connection Poll" style="text;html=1;strokeColor=none;fillColor=none;align=left;verticalAlign=middle;whiteSpace=wrap;rounded=0;fontStyle=1;fontSize=22;" vertex="1" parent="LOqnOxIcrfnhqqUliYvZ-1">
          <mxGeometry x="360" y="50" width="260" height="30" as="geometry" />
        </mxCell>
        <mxCell id="LOqnOxIcrfnhqqUliYvZ-14" value="" style="edgeStyle=orthogonalEdgeStyle;rounded=0;orthogonalLoop=1;jettySize=auto;html=1;fontSize=22;" edge="1" parent="LOqnOxIcrfnhqqUliYvZ-1" source="LOqnOxIcrfnhqqUliYvZ-11" target="LOqnOxIcrfnhqqUliYvZ-13">
          <mxGeometry relative="1" as="geometry" />
        </mxCell>
        <mxCell id="LOqnOxIcrfnhqqUliYvZ-11" value="Get response packet" style="rounded=0;whiteSpace=wrap;html=1;" vertex="1" parent="LOqnOxIcrfnhqqUliYvZ-1">
          <mxGeometry x="400" y="220" width="120" height="60" as="geometry" />
        </mxCell>
        <mxCell id="LOqnOxIcrfnhqqUliYvZ-13" value="For each connection request execute connection start" style="whiteSpace=wrap;html=1;rounded=0;" vertex="1" parent="LOqnOxIcrfnhqqUliYvZ-1">
          <mxGeometry x="400" y="340" width="120" height="60" as="geometry" />
        </mxCell>
        <mxCell id="LOqnOxIcrfnhqqUliYvZ-15" value="Connection Start" style="text;html=1;strokeColor=none;fillColor=none;align=left;verticalAlign=middle;whiteSpace=wrap;rounded=0;fontStyle=1;fontSize=22;" vertex="1" parent="LOqnOxIcrfnhqqUliYvZ-1">
          <mxGeometry x="640" y="50" width="260" height="30" as="geometry" />
        </mxCell>
        <mxCell id="LOqnOxIcrfnhqqUliYvZ-20" value="" style="edgeStyle=orthogonalEdgeStyle;rounded=0;orthogonalLoop=1;jettySize=auto;html=1;fontSize=12;" edge="1" parent="LOqnOxIcrfnhqqUliYvZ-1" source="LOqnOxIcrfnhqqUliYvZ-18" target="LOqnOxIcrfnhqqUliYvZ-19">
          <mxGeometry relative="1" as="geometry">
            <Array as="points">
              <mxPoint x="730" y="240" />
              <mxPoint x="730" y="240" />
            </Array>
          </mxGeometry>
        </mxCell>
        <mxCell id="LOqnOxIcrfnhqqUliYvZ-22" value="" style="edgeStyle=orthogonalEdgeStyle;rounded=0;orthogonalLoop=1;jettySize=auto;html=1;fontSize=12;entryX=0.5;entryY=0;entryDx=0;entryDy=0;" edge="1" parent="LOqnOxIcrfnhqqUliYvZ-1" source="LOqnOxIcrfnhqqUliYvZ-18" target="LOqnOxIcrfnhqqUliYvZ-23">
          <mxGeometry relative="1" as="geometry">
            <mxPoint x="830" y="140" as="targetPoint" />
          </mxGeometry>
        </mxCell>
        <mxCell id="LOqnOxIcrfnhqqUliYvZ-18" value="Is Connection Initialized already?" style="rhombus;whiteSpace=wrap;html=1;fontSize=12;" vertex="1" parent="LOqnOxIcrfnhqqUliYvZ-1">
          <mxGeometry x="690" y="100" width="80" height="80" as="geometry" />
        </mxCell>
        <mxCell id="LOqnOxIcrfnhqqUliYvZ-26" value="" style="edgeStyle=orthogonalEdgeStyle;rounded=0;orthogonalLoop=1;jettySize=auto;html=1;fontSize=12;" edge="1" parent="LOqnOxIcrfnhqqUliYvZ-1" source="LOqnOxIcrfnhqqUliYvZ-19" target="LOqnOxIcrfnhqqUliYvZ-25">
          <mxGeometry relative="1" as="geometry" />
        </mxCell>
        <mxCell id="LOqnOxIcrfnhqqUliYvZ-19" value="Get Initialized&amp;nbsp; object from Hashmap" style="whiteSpace=wrap;html=1;" vertex="1" parent="LOqnOxIcrfnhqqUliYvZ-1">
          <mxGeometry x="670" y="230" width="120" height="60" as="geometry" />
        </mxCell>
        <mxCell id="LOqnOxIcrfnhqqUliYvZ-27" style="edgeStyle=orthogonalEdgeStyle;rounded=0;orthogonalLoop=1;jettySize=auto;html=1;entryX=1;entryY=0.5;entryDx=0;entryDy=0;fontSize=12;" edge="1" parent="LOqnOxIcrfnhqqUliYvZ-1" source="LOqnOxIcrfnhqqUliYvZ-23" target="LOqnOxIcrfnhqqUliYvZ-19">
          <mxGeometry relative="1" as="geometry">
            <Array as="points">
              <mxPoint x="830" y="260" />
              <mxPoint x="830" y="260" />
            </Array>
          </mxGeometry>
        </mxCell>
        <mxCell id="LOqnOxIcrfnhqqUliYvZ-23" value="Send Connection request to Other peer" style="whiteSpace=wrap;html=1;" vertex="1" parent="LOqnOxIcrfnhqqUliYvZ-1">
          <mxGeometry x="830" y="230" width="120" height="60" as="geometry" />
        </mxCell>
        <mxCell id="LOqnOxIcrfnhqqUliYvZ-29" value="" style="edgeStyle=orthogonalEdgeStyle;rounded=0;orthogonalLoop=1;jettySize=auto;html=1;fontSize=12;" edge="1" parent="LOqnOxIcrfnhqqUliYvZ-1" source="LOqnOxIcrfnhqqUliYvZ-25" target="LOqnOxIcrfnhqqUliYvZ-28">
          <mxGeometry relative="1" as="geometry" />
        </mxCell>
        <mxCell id="LOqnOxIcrfnhqqUliYvZ-25" value="Start Handshake" style="whiteSpace=wrap;html=1;" vertex="1" parent="LOqnOxIcrfnhqqUliYvZ-1">
          <mxGeometry x="670" y="340" width="120" height="60" as="geometry" />
        </mxCell>
        <mxCell id="LOqnOxIcrfnhqqUliYvZ-33" value="" style="edgeStyle=orthogonalEdgeStyle;rounded=0;orthogonalLoop=1;jettySize=auto;html=1;fontSize=12;" edge="1" parent="LOqnOxIcrfnhqqUliYvZ-1" source="LOqnOxIcrfnhqqUliYvZ-28" target="LOqnOxIcrfnhqqUliYvZ-32">
          <mxGeometry relative="1" as="geometry" />
        </mxCell>
        <mxCell id="LOqnOxIcrfnhqqUliYvZ-36" value="" style="edgeStyle=orthogonalEdgeStyle;rounded=0;orthogonalLoop=1;jettySize=auto;html=1;fontSize=12;" edge="1" parent="LOqnOxIcrfnhqqUliYvZ-1" source="LOqnOxIcrfnhqqUliYvZ-28" target="LOqnOxIcrfnhqqUliYvZ-35">
          <mxGeometry relative="1" as="geometry" />
        </mxCell>
        <mxCell id="LOqnOxIcrfnhqqUliYvZ-28" value="Was Handshake Successful?" style="rhombus;whiteSpace=wrap;html=1;" vertex="1" parent="LOqnOxIcrfnhqqUliYvZ-1">
          <mxGeometry x="690" y="440" width="80" height="80" as="geometry" />
        </mxCell>
        <mxCell id="LOqnOxIcrfnhqqUliYvZ-30" value="Yes" style="text;html=1;strokeColor=none;fillColor=none;align=center;verticalAlign=middle;whiteSpace=wrap;rounded=0;fontSize=12;" vertex="1" parent="LOqnOxIcrfnhqqUliYvZ-1">
          <mxGeometry x="670" y="190" width="60" height="30" as="geometry" />
        </mxCell>
        <mxCell id="LOqnOxIcrfnhqqUliYvZ-31" value="No" style="text;html=1;strokeColor=none;fillColor=none;align=center;verticalAlign=middle;whiteSpace=wrap;rounded=0;fontSize=12;" vertex="1" parent="LOqnOxIcrfnhqqUliYvZ-1">
          <mxGeometry x="770" y="110" width="60" height="30" as="geometry" />
        </mxCell>
        <mxCell id="LOqnOxIcrfnhqqUliYvZ-32" value="Create connection request to other peer again" style="whiteSpace=wrap;html=1;" vertex="1" parent="LOqnOxIcrfnhqqUliYvZ-1">
          <mxGeometry x="830" y="450" width="120" height="60" as="geometry" />
        </mxCell>
        <mxCell id="LOqnOxIcrfnhqqUliYvZ-34" value="No" style="text;html=1;strokeColor=none;fillColor=none;align=center;verticalAlign=middle;whiteSpace=wrap;rounded=0;fontSize=12;" vertex="1" parent="LOqnOxIcrfnhqqUliYvZ-1">
          <mxGeometry x="770" y="450" width="60" height="30" as="geometry" />
        </mxCell>
        <mxCell id="LOqnOxIcrfnhqqUliYvZ-39" value="" style="edgeStyle=orthogonalEdgeStyle;rounded=0;orthogonalLoop=1;jettySize=auto;html=1;fontSize=12;" edge="1" parent="LOqnOxIcrfnhqqUliYvZ-1" source="LOqnOxIcrfnhqqUliYvZ-35" target="LOqnOxIcrfnhqqUliYvZ-38">
          <mxGeometry relative="1" as="geometry" />
        </mxCell>
        <mxCell id="LOqnOxIcrfnhqqUliYvZ-35" value="Send Other peer&#39;s username for verification" style="whiteSpace=wrap;html=1;" vertex="1" parent="LOqnOxIcrfnhqqUliYvZ-1">
          <mxGeometry x="670" y="570" width="120" height="60" as="geometry" />
        </mxCell>
        <mxCell id="LOqnOxIcrfnhqqUliYvZ-37" value="Yes" style="text;html=1;strokeColor=none;fillColor=none;align=center;verticalAlign=middle;whiteSpace=wrap;rounded=0;fontSize=12;" vertex="1" parent="LOqnOxIcrfnhqqUliYvZ-1">
          <mxGeometry x="670" y="520" width="60" height="30" as="geometry" />
        </mxCell>
        <mxCell id="LOqnOxIcrfnhqqUliYvZ-41" value="" style="edgeStyle=orthogonalEdgeStyle;rounded=0;orthogonalLoop=1;jettySize=auto;html=1;fontSize=12;" edge="1" parent="LOqnOxIcrfnhqqUliYvZ-1" source="LOqnOxIcrfnhqqUliYvZ-38" target="LOqnOxIcrfnhqqUliYvZ-40">
          <mxGeometry relative="1" as="geometry" />
        </mxCell>
        <mxCell id="LOqnOxIcrfnhqqUliYvZ-44" style="edgeStyle=orthogonalEdgeStyle;rounded=0;orthogonalLoop=1;jettySize=auto;html=1;entryX=0;entryY=0.5;entryDx=0;entryDy=0;fontSize=12;" edge="1" parent="LOqnOxIcrfnhqqUliYvZ-1" source="LOqnOxIcrfnhqqUliYvZ-38" target="LOqnOxIcrfnhqqUliYvZ-43">
          <mxGeometry relative="1" as="geometry" />
        </mxCell>
        <mxCell id="LOqnOxIcrfnhqqUliYvZ-38" value="Wait for other peer to send their username" style="whiteSpace=wrap;html=1;" vertex="1" parent="LOqnOxIcrfnhqqUliYvZ-1">
          <mxGeometry x="670" y="670" width="120" height="60" as="geometry" />
        </mxCell>
        <mxCell id="LOqnOxIcrfnhqqUliYvZ-42" style="edgeStyle=orthogonalEdgeStyle;rounded=0;orthogonalLoop=1;jettySize=auto;html=1;entryX=1;entryY=0.5;entryDx=0;entryDy=0;fontSize=12;" edge="1" parent="LOqnOxIcrfnhqqUliYvZ-1" source="LOqnOxIcrfnhqqUliYvZ-40" target="LOqnOxIcrfnhqqUliYvZ-32">
          <mxGeometry relative="1" as="geometry">
            <Array as="points">
              <mxPoint x="990" y="810" />
              <mxPoint x="990" y="480" />
            </Array>
          </mxGeometry>
        </mxCell>
        <mxCell id="LOqnOxIcrfnhqqUliYvZ-47" value="" style="edgeStyle=orthogonalEdgeStyle;rounded=0;orthogonalLoop=1;jettySize=auto;html=1;fontSize=12;" edge="1" parent="LOqnOxIcrfnhqqUliYvZ-1" source="LOqnOxIcrfnhqqUliYvZ-40" target="LOqnOxIcrfnhqqUliYvZ-46">
          <mxGeometry relative="1" as="geometry" />
        </mxCell>
        <mxCell id="LOqnOxIcrfnhqqUliYvZ-40" value="Is username correct?" style="rhombus;whiteSpace=wrap;html=1;" vertex="1" parent="LOqnOxIcrfnhqqUliYvZ-1">
          <mxGeometry x="690" y="770" width="80" height="80" as="geometry" />
        </mxCell>
        <mxCell id="LOqnOxIcrfnhqqUliYvZ-45" style="edgeStyle=orthogonalEdgeStyle;rounded=0;orthogonalLoop=1;jettySize=auto;html=1;entryX=0.5;entryY=1;entryDx=0;entryDy=0;fontSize=12;" edge="1" parent="LOqnOxIcrfnhqqUliYvZ-1" source="LOqnOxIcrfnhqqUliYvZ-43" target="LOqnOxIcrfnhqqUliYvZ-32">
          <mxGeometry relative="1" as="geometry" />
        </mxCell>
        <mxCell id="LOqnOxIcrfnhqqUliYvZ-43" value="Timeout" style="shape=parallelogram;perimeter=parallelogramPerimeter;whiteSpace=wrap;html=1;fixedSize=1;fontSize=12;" vertex="1" parent="LOqnOxIcrfnhqqUliYvZ-1">
          <mxGeometry x="830" y="670" width="120" height="60" as="geometry" />
        </mxCell>
        <mxCell id="LOqnOxIcrfnhqqUliYvZ-46" value="Create Peer object and return" style="whiteSpace=wrap;html=1;" vertex="1" parent="LOqnOxIcrfnhqqUliYvZ-1">
          <mxGeometry x="670" y="890" width="120" height="60" as="geometry" />
        </mxCell>
        <mxCell id="LOqnOxIcrfnhqqUliYvZ-48" value="Yes" style="text;html=1;strokeColor=none;fillColor=none;align=center;verticalAlign=middle;whiteSpace=wrap;rounded=0;fontSize=12;" vertex="1" parent="LOqnOxIcrfnhqqUliYvZ-1">
          <mxGeometry x="670" y="850" width="60" height="30" as="geometry" />
        </mxCell>
        <mxCell id="LOqnOxIcrfnhqqUliYvZ-49" value="No" style="text;html=1;strokeColor=none;fillColor=none;align=center;verticalAlign=middle;whiteSpace=wrap;rounded=0;fontSize=12;" vertex="1" parent="LOqnOxIcrfnhqqUliYvZ-1">
          <mxGeometry x="770" y="780" width="60" height="30" as="geometry" />
        </mxCell>
      </root>
    </mxGraphModel>
  </diagram>
</mxfile>
